<?xml version="1.0" encoding="UTF-8" standalone="no"?>
<!-- Created with Inkscape (http://www.inkscape.org/) -->

<svg
   xmlns:dc="http://purl.org/dc/elements/1.1/"
   xmlns:cc="http://creativecommons.org/ns#"
   xmlns:rdf="http://www.w3.org/1999/02/22-rdf-syntax-ns#"
   xmlns:svg="http://www.w3.org/2000/svg"
   xmlns="http://www.w3.org/2000/svg"
   xmlns:sodipodi="http://sodipodi.sourceforge.net/DTD/sodipodi-0.dtd"
   xmlns:inkscape="http://www.inkscape.org/namespaces/inkscape"
   width="11.5in"
   height="3in"
   viewBox="0 0 1035 270.00001"
   id="svg2"
   version="1.1"
   inkscape:version="0.91 r13725"
   sodipodi:docname="sage-cocalc-bumper-v3.svg">
  <defs
     id="defs4" />
  <sodipodi:namedview
     id="base"
     pagecolor="#e1e1e1"
     bordercolor="#06cc00"
     borderopacity="1"
     inkscape:pageopacity="0"
     inkscape:pageshadow="2"
     inkscape:zoom="1.4142136"
     inkscape:cx="554.61454"
     inkscape:cy="131.07688"
     inkscape:document-units="px"
     inkscape:current-layer="layer1"
     showgrid="true"
     inkscape:showpageshadow="false"
     borderlayer="true"
     units="in"
     inkscape:window-width="2560"
     inkscape:window-height="1407"
     inkscape:window-x="0"
     inkscape:window-y="33"
     inkscape:window-maximized="1"
     inkscape:snap-bbox="true"
     inkscape:bbox-paths="true"
     inkscape:bbox-nodes="true"
     inkscape:snap-page="true"
     inkscape:snap-smooth-nodes="true"
     inkscape:object-nodes="true"
     inkscape:snap-intersection-paths="true"
     inkscape:object-paths="false"
     inkscape:snap-nodes="false">
    <inkscape:grid
       type="xygrid"
       id="grid6220"
       units="in"
       spacingx="22.5"
       spacingy="22.500001"
       color="#78ff3f"
       opacity="0.1254902"
       empcolor="#b4ff3f"
       empopacity="0.25098039"
       originy="22.500001"
       snapvisiblegridlinesonly="true"
       originx="22.5" />
  </sodipodi:namedview>
  <metadata
     id="metadata7">
    <rdf:RDF>
      <cc:Work
         rdf:about="">
        <dc:format>image/svg+xml</dc:format>
        <dc:type
           rdf:resource="http://purl.org/dc/dcmitype/StillImage" />
        <dc:title></dc:title>
      </cc:Work>
    </rdf:RDF>
  </metadata>
  <g
     inkscape:groupmode="layer"
     id="layer2"
     inkscape:label="bg"
     sodipodi:insensitive="true">
    <rect
       ry="2.8417971e-05"
       rx="2.841797e-05"
       y="-22.500002"
       x="-22.5"
       height="315"
       width="1080"
       id="rect3225-2-4-9"
       style="color:#000000;display:inline;overflow:visible;visibility:visible;fill:#ffffff;fill-opacity:1;fill-rule:nonzero;stroke:none;stroke-width:0;marker:none;filter:url(#filter4103);enable-background:accumulate" />
    <rect
       ry="22.000029"
       rx="22.000029"
       y="22.499998"
       x="22.5"
       height="225"
       width="990"
       id="rect3225-2-4"
       style="color:#000000;display:inline;overflow:visible;visibility:visible;fill:#1919bf;fill-opacity:1;fill-rule:nonzero;stroke:none;stroke-width:0;marker:none;filter:url(#filter4103);enable-background:accumulate" />
  </g>
  <g
     inkscape:label="car"
     inkscape:groupmode="layer"
     id="layer1"
     transform="translate(0,-782.36215)">
    <path
       inkscape:connector-curvature="0"
       style="fill:#ffffff;fill-opacity:1;stroke:none"
       d="m 118.19984,827.36216 c -3.75173,0 -6.79404,2.9995 -6.79404,6.72439 0,1.43059 0.46625,2.76598 1.23138,3.85756 L 95.92822,857.1897 c -0.72746,-0.20812 -1.49812,-0.35839 -2.29298,-0.35839 -4.562593,0 -8.259032,3.69122 -8.259032,8.22107 0,0.23811 0.02199,0.46254 0.04299,0.69557 l -14.713358,9.61231 c -1.107557,-0.77858 -2.4462,-1.24367 -3.906539,-1.24367 -3.751737,0 -6.794017,3.04167 -6.794017,6.76652 0,2.33382 1.200341,4.37525 3.014879,5.58599 l -2.675159,50.25366 c -1.691898,0.88543 -2.845038,2.64874 -2.845038,4.67985 0,2.91983 2.38814,5.26976 5.32914,5.26976 0.244699,0 0.485798,0.0163 0.721777,-0.0204 l 36.921267,37.56358 c -0.0139,0.13987 -0.02,0.27827 -0.02,0.42186 0,2.91974 2.38814,5.29068 5.32904,5.29068 1.0783,0 2.0702,-0.31707 2.90868,-0.86414 l 20.04237,10.66627 c -0.0371,0.28758 -0.0638,0.56648 -0.0638,0.86448 0,3.7247 3.62476,6.6925 6.79401,6.7661 3.01725,0.071 6.43809,-2.6978 6.7516,-6.134 l 54.26712,-15.74618 c 1.23955,1.636 3.19339,2.698 5.41402,2.698 3.75159,0 6.79401,-2.99921 6.79401,-6.72413 0,-1.58107 -0.54762,-3.04507 -1.465,-4.19494 l 23.48185,-51.32874 c 3.75163,0 6.79395,-3.02056 6.79395,-6.74547 0,-3.27833 -2.35516,-6.011 -5.47769,-6.61909 l -7.36729,-24.41006 c 1.1835,-0.96965 1.9534,-2.447 1.9534,-4.08941 0,-2.91984 -2.38826,-5.29091 -5.32912,-5.29091 -0.35478,0 -0.70501,0.0612 -1.0403,0.12641 l -33.75779,-41.0635 c 0.0502,-0.29227 0.10622,-0.59982 0.10622,-0.90647 0,-2.91983 -2.38826,-5.26985 -5.32914,-5.26985 -1.6731,0 -3.18511,0.76221 -4.16131,1.96036 l -52.50473,-1.77042 c -0.93444,-2.61612 -3.43544,-4.48994 -6.39066,-4.48994 z m 6.34808,9.14847 51.54965,1.72853 c 0.31464,1.24317 1.05591,2.31725 2.08069,3.03549 l -1.21017,5.7125 c -2.52617,0.56938 -4.60944,2.28927 -5.66873,4.5743 l -57.68554,6.66107 3.86412,-17.41168 c 0.24041,0.0253 0.47474,0.0204 0.7219,0.0204 2.89399,0 5.36945,-1.78989 6.34808,-4.32127 z m 59.06557,5.16452 32.9085,40.00901 c -0.36688,0.71752 -0.55201,1.52212 -0.55201,2.38194 0,1.52248 0.63991,2.89287 1.67729,3.85756 l -2.69637,7.54648 -28.8321,-36.65739 c 0.61077,-1.14445 0.93408,-2.42988 0.93408,-3.81531 0,-3.52536 -2.22737,-6.53433 -5.37147,-7.69406 l 1.10396,-5.29092 c 0.29263,-0.0868 0.55905,-0.20429 0.82812,-0.33731 z m -68.95927,1.05394 -3.50316,15.76754 -11.16774,1.30698 c -0.028,-0.0348 -0.0768,-0.0718 -0.10619,-0.10561 l 14.77701,-16.96905 z m 57.02731,18.08628 -16.70906,64.79853 c -0.46178,0.10414 -0.92299,0.21619 -1.35881,0.37946 l -43.14207,-48.44089 20.10603,-2.21328 c 0.90179,1.64806 2.64905,2.76135 4.67089,2.76135 2.94084,0 5.32913,-2.37105 5.32913,-5.29092 0,-0.41266 -0.0582,-0.81615 -0.14865,-1.20149 l 28.28004,-10.43438 2.97234,-0.35838 z m -12.71765,1.4755 -19.53275,7.23038 c -0.9756,-1.21668 -2.49456,-2.00264 -4.18262,-2.00264 -2.94087,0 -5.32901,2.37117 -5.32901,5.29101 0,0.0821 0.0178,0.15082 0.0201,0.2319 l -20.10604,2.23446 1.65598,-7.48327 47.47324,-5.50184 z m 21.74092,0.92755 31.46471,39.9879 -6.47553,18.10737 -39.5539,9.12745 c -0.56834,-0.96973 -1.27671,-1.83849 -2.12312,-2.57163 z m -71.65566,4.84828 -1.42246,6.3239 -4.9682,-5.5861 z m -21.889413,2.06584 c 0.458399,0.574 0.99728,1.1045 1.592318,1.5388 l -1.167717,6.07087 -14.182535,1.58093 c -0.01393,-0.0566 -0.02798,-0.11227 -0.042,-0.16862 l 13.800374,-9.02204 z m 6.050893,3.09867 c 0.1406,0.012 0.28204,0.0204 0.42462,0.0204 0.17721,0 0.35614,-0.012 0.5308,-0.0204 l 3.07846,3.43598 -4.79822,0.52691 z m 5.92348,5.56503 6.0297,6.76651 -2.59018,11.67801 c -2.85344,0.0984 -5.11682,2.43408 -5.11682,5.29108 0,1.62319 0.72992,3.0774 1.88962,4.04716 L 81.533387,933.68734 91.97914,879.59723 Z m -12.016913,1.34912 -11.295075,58.53783 c -1.899759,0.39135 -3.501878,1.57564 -4.458599,3.18299 l -3.205858,-0.6112 c -0.05361,-2.08755 -1.33164,-3.8477 -3.14222,-4.65855 l 2.611401,-49.03115 c 3.094178,-0.38128 5.542957,-2.84366 5.902376,-5.92338 z m 19.957453,7.58857 40.23323,45.19459 c -0.064,0.23908 -0.12287,0.47097 -0.16975,0.71663 l -65.052692,6.91422 c -0.445022,-0.45239 -0.970801,-0.82421 -1.528559,-1.13848 L 101.406,907.65409 c 0.43406,0.1132 0.88884,0.1686 1.35882,0.1686 2.94086,0 5.329,-2.3711 5.329,-5.29094 0,-2.17475 -1.3159,-4.03653 -3.20588,-4.8484 z m 112.61081,1.39122 c 0.14781,0.0462 0.29275,0.0731 0.4458,0.10546 l 6.26323,20.78441 -9.74518,-12.39477 3.03615,-8.49506 z m -5.81741,16.21021 9.36301,11.90997 -14.86187,3.43589 z m 9.8938,18.9505 -21.35871,46.66995 0.44583,-29.15276 c 2.33565,-0.40985 4.11897,-2.41189 4.11897,-4.84827 0,-1.96823 -1.14766,-3.67226 -2.82383,-4.46906 l 1.44381,-4.00499 z m -20.84913,4.80621 -1.0616,2.93003 c -2.68989,0.07 -4.862,2.24502 -4.862,4.93268 0,2.21968 1.49617,4.09539 3.5245,4.72174 l -0.48836,33.28463 c -1.68748,0.4836 -3.09969,1.60453 -3.97024,3.07747 l -29.66018,-6.36601 c -0.03,-2.89359 -2.3859,-5.22767 -5.30779,-5.22767 -2.85227,0 -5.19132,2.21887 -5.32902,5.01701 l -7.23985,1.77053 8.93824,-27.46653 c 4.99375,-0.0985 9.1147,-3.70415 9.93627,-8.45295 z M 148.24209,940.496 c 0.65733,1.18242 1.5344,2.21923 2.59022,3.05668 l -10.29709,31.61914 -22.10187,5.37547 -34.967882,-32.6523 c 0.07,-0.16601 0.133791,-0.33402 0.190993,-0.50601 z m -78.555755,5.77593 0.806778,0.14707 c 0.04999,0.29644 0.123998,0.58241 0.21216,0.86415 z m 5.265355,5.37527 c 0.705342,0.24618 1.46034,0.37919 2.250441,0.37919 0.156592,0 0.313379,-0.02 0.467162,-0.02 l 29.490227,27.52983 c -0.4393,-0.11601 -0.90378,-0.19 -1.38002,-0.19 -1.03844,0 -2.00458,0.31186 -2.8237,0.822 L 74.95169,951.64757 Z m 81.20972,22.11248 c 0.79919,1.91774 2.70523,3.24627 4.92563,3.24627 2.13828,0 3.97229,-1.2512 4.81952,-3.05667 l 26.09328,5.56494 -50.27569,14.60827 5.94471,-18.29694 z m -16.45431,3.98401 -5.28661,16.18907 c -0.45057,0.068 -0.87807,0.18799 -1.29501,0.33719 l -12.6752,-11.84653 z m -27.3671,6.66119 3.39696,3.16187 -4.67088,-2.48747 c 0.0144,-0.11733 0.02,-0.23892 0.02,-0.35827 l 1.25261,-0.31613 z"
       id="path5088-7-1-3-2-7-9"
       sodipodi:nodetypes="csccssccssccssccssccsaccssccsccssccsscccccccccccsccccscccsccccccccccccccssccccccsscccccccccccccccccccccccscccccccsccccccccccccccccccsscccccccccccccccscccccsccccscccccccccccccccccsccsccccscccccccccccccccc" />
    <path
       inkscape:connector-curvature="0"
       style="fill:#ffffff;fill-opacity:1;stroke:none"
       d="m 383.24253,848.1478 c -0.68298,0.0123 -1.40813,0.0285 -2.19828,0.0551 -8.74276,0.0285 -13.00819,-0.0592 -22.26478,0 -17.30254,-0.003 -34.12318,-0.0123 -51.51901,0 -5.10206,0.003 -5.98546,1.36917 -7.66586,3.85275 -1.55163,2.31757 -0.95875,5.06556 -1.07096,8.03573 0.0906,17.07344 -0.218,33.92013 0.16903,51.18666 4.5e-4,3.16283 0.41052,5.34376 5.46754,5.39385 21.94504,0.13105 43.95175,-0.0976 65.89246,0.22005 3.44596,-0.0687 4.60792,0.66379 4.45297,5.00858 0.17311,9.85564 0.10942,15.77626 0.16902,23.99718 0.1135,2.78985 -1.71469,3.80948 -4.50931,3.79772 -21.78998,-0.26169 -43.58988,-0.0368 -65.38519,-0.11023 0,0 -35.84911,-0.0689 -36.41279,0 -2.58205,1.04825 -2.29838,3.18606 -2.36737,6.71489 0.0674,3.49822 -0.18985,6.25724 2.19827,6.65977 4.11227,0.79428 8.36831,0.22538 12.56975,0.44033 33.99175,-0.0368 70.85384,0.0748 104.84173,-0.0551 2.86965,0.13798 4.07076,-0.86585 3.94566,-4.34809 -0.0744,-17.6221 0.15066,-34.2422 -0.11268,-51.84714 -0.11757,-2.7311 -0.62251,-3.79833 -2.93106,-4.18299 l -64.3142,0 c -5.1366,0.0588 -5.63012,-0.0123 -6.87674,-1.32098 -1.20098,-1.26186 -1.3878,-2.93186 -1.29643,-11.17295 -0.13147,-9.08722 -0.11553,-5.67136 0,-14.75058 -0.10419,-7.02634 -0.50229,-9.12574 1.12734,-11.11796 1.66949,-2.04097 8.64869,-1.24936 15.38808,-1.21087 18.885,-0.0564 43.71052,0.35112 55.69012,0 4.02521,-0.11798 3.85761,-2.40203 3.94568,-7.48535 0.0368,-7.1294 -2.15251,-7.83916 -6.93312,-7.76053 z m 43.28951,0 c -4.39411,0.008 -8.86001,0.0661 -13.47163,0.16493 -4.46821,-0.34905 -7.93752,1.85363 -7.7222,8.20089 0.10008,33.74386 -0.3507,64.78493 0,98.5205 0.35274,8.4338 4.41774,7.87533 10.70964,7.81561 24.91798,-0.11513 45.9619,-0.0801 71.24731,-0.88066 3.46164,-0.10941 6.37331,-2.60016 8.79314,-7.59543 3.22633,-5.78733 6.21662,-10.77867 9.69507,-17.3374 3.19659,-6.02738 5.10612,-11.90846 7.83492,-11.88849 2.7288,0.0204 4.64824,5.93127 8.96228,13.31951 4.31406,7.38824 9.43049,15.67196 13.86619,21.30023 3.50634,3.18316 9.30323,2.1045 14.82441,2.31167 15.43729,-0.11756 30.94572,0.41016 46.33325,0 4.17686,-0.0931 2.95,-3.86686 3.15655,-6.7148 0.60356,-8.32299 -5.06655,-6.68528 -8.62409,-6.76986 -16.38287,-0.19799 -41.38523,1.3652 -47.3479,0.22007 -3.03259,-0.58231 -5.93606,-5.43725 -14.20436,-19.48392 -3.67228,-5.46031 -4.71303,-7.58766 -8.34224,-14.03504 -1.05441,-1.81765 -1.04516,-3.484 -0.56365,-5.55898 4.83903,-10.01884 2.84802,-5.5387 5.35483,-10.40245 7.56108,-12.52229 19.47069,-33.14321 20.51742,-34.78491 2.26106,-3.54639 5.22242,-2.82777 10.25867,-2.97213 14.31306,-0.0285 28.5355,-0.19474 42.89494,0.0551 6.93658,-0.0163 6.98728,1.73481 6.87672,9.96214 -0.0866,40.15577 0.18944,80.27861 -0.11268,120.42619 -1.2087,4.88221 -7.69802,4.43305 -11.89335,4.51323 -27.72706,0.11554 -55.48023,-0.24046 -83.197,0.16493 -1.53731,2.40781 -1.67276,4.43997 -1.91644,7.59547 -0.16454,3.0157 -0.53094,7.292 3.77656,7.1551 34.75014,0.1171 69.51703,0.02 104.27808,0.055 3.59152,0 5.91258,-3.5976 5.80573,-7.5955 -0.0665,-48.46917 0.12003,-96.95216 -0.11268,-145.41404 0.13024,-4.60505 -2.27171,-10.19446 -7.83494,-10.18229 -22.87825,-0.16861 -45.77856,-0.15759 -68.65443,0 -6.95642,0.7618 -8.9562,8.5869 -12.40066,13.42959 -6.839,11.38714 -13.38288,22.98233 -20.40465,34.23451 -2.82593,3.56084 -4.89194,-1.37076 -6.14395,-3.57758 -8.09016,-13.37228 -16.29922,-26.96996 -24.74493,-40.1237 -3.94379,-5.31052 -10.99092,-3.96187 -17.92452,-3.96282 -13.85189,0.0845 -26.38718,-0.19433 -39.56932,-0.16494 z m 217.18018,0 c -3.21765,0.74294 -5.21466,4.08394 -5.29842,7.21017 -0.003,33.02588 -0.0327,66.04705 0.11267,99.07087 0.10209,3.51798 1.85412,5.66918 5.07301,7.04505 3.35778,1.62872 6.74853,1.80124 10.93507,1.87133 l 125.30285,0 c 2.46103,0.16209 3.55996,-0.0123 3.60743,-3.13723 0.0449,-3.065 0.0976,-5.92205 0,-8.64118 0.0992,-3.31135 -2.78658,-3.12232 -4.22749,-3.02716 l -121.46986,0 c -3.07865,-0.0636 -4.43627,-3.06906 -4.00206,-5.72408 0.0368,-25.49797 -0.0711,-51.06839 0.0564,-76.55981 -0.20046,-4.19924 1.72217,-5.47452 5.18574,-5.17372 23.42945,0.0678 49.97184,-0.12737 73.38923,0.11023 2.71113,-0.10778 4.54516,1.59797 4.34021,4.4582 -0.10616,9.78232 0.20372,22.87456 -0.16902,32.63839 0.31313,3.80873 -2.51888,3.63016 -5.52392,3.57753 -21.53363,0.0368 -30.98669,0.13104 -67.35799,0.11022 -3.56251,-9.1e-4 -2.75089,3.465 -2.87467,6.49469 0.14206,5.03564 -0.78799,7.82423 2.19826,7.81557 28.71407,-0.0832 55.77109,0.21025 83.87341,0 2.88209,0.22126 4.56615,-2.16574 4.50931,-5.39385 -0.0898,-18.96918 0.21556,-37.89033 -0.11267,-56.85571 -0.54817,-3.3806 -4.15289,-5.70808 -8.84958,-5.77911 -32.91622,-0.0657 -65.7841,0.12167 -98.69776,-0.11024 z m -211.76903,13.59473 c 5.2134,-0.0543 10.45604,0.37847 15.66991,0.27515 8.35984,-0.0963 13.87914,0.0992 22.26479,0 7.05029,-0.14084 8.6877,5.13895 9.86413,7.04507 6.90843,11.19366 11.78621,19.39664 18.43184,30.54686 2.23078,3.71385 4.46081,6.73279 6.59491,10.12726 0.8629,1.81585 0.49101,3.8407 -0.45093,5.55898 -3.51174,5.2367 -6.53647,10.78108 -9.80778,16.18159 -3.49936,5.57107 -6.33526,11.56205 -10.54054,16.67693 -1.75784,2.57702 -5.79623,1.26837 -7.44037,1.7062 -14.8932,0.16902 -27.09079,0.062 -41.99309,0.11023 -3.1914,-0.20045 -9.37797,0.7401 -12.0624,-0.99073 -3.23522,-2.08597 -2.8362,-5.45059 -2.81835,-8.47608 -0.0763,-13.14601 0.0244,-23.55461 0,-36.71126 -0.18167,-10.37968 0.18168,-18.02062 0,-28.40032 -0.16046,-5.99537 0.30292,-6.86819 1.18372,-8.86136 1.06678,-2.41453 3.51639,-3.81691 5.86208,-4.51323 1.72939,-0.15392 3.50434,-0.25721 5.24208,-0.27517 z"
       id="path5088-7-1-3"
       sodipodi:nodetypes="cccccccccccccccccccccccccscsccccccccccscscccsccccccccccccccccccccccccccccccccccccccccccccccscccccccccccccccccsccccccc" />
    <g
       id="g4163"
       transform="matrix(3.5999998,0,0,3.5999998,-157.22928,-911.55482)"
       style="fill:#ffffff;fill-opacity:1">
      <path
         style="color:#000000;clip-rule:nonzero;display:inline;overflow:visible;visibility:visible;opacity:1;isolation:auto;mix-blend-mode:normal;color-interpolation:sRGB;color-interpolation-filters:linearRGB;solid-color:#000000;solid-opacity:1;fill:#ffffff;fill-opacity:1;fill-rule:nonzero;stroke:none;stroke-width:1;stroke-linecap:square;stroke-linejoin:round;stroke-miterlimit:4;stroke-dasharray:none;stroke-dashoffset:0;stroke-opacity:1;color-rendering:auto;image-rendering:auto;shape-rendering:auto;text-rendering:auto;enable-background:accumulate"
         d="m 46.84375,14.449219 c -1.048339,0 -2.069543,0.105796 -3.056641,0.30664 -0.987098,0.200844 -1.939789,0.497162 -2.845703,0.878907 -0.905914,0.381744 -1.765526,0.849876 -2.570312,1.392578 -0.804787,0.542702 -1.554566,1.160034 -2.238282,1.84375 -0.683715,0.683716 -1.301048,1.433494 -1.84375,2.238281 -0.542701,0.804787 -1.010833,1.664399 -1.392578,2.570313 -0.381744,0.905913 -0.678062,1.858605 -0.878906,2.845703 -0.200844,0.987098 -0.30664,2.008302 -0.30664,3.05664 0,1.048339 0.105796,2.071496 0.30664,3.058594 0.200844,0.987098 0.497162,1.937836 0.878906,2.84375 0.381745,0.905914 0.849877,1.767478 1.392578,2.572266 0.542702,0.804787 1.160035,1.554564 1.84375,2.238281 0.683716,0.683716 1.433495,1.301047 2.238282,1.84375 0.804786,0.542702 1.664398,1.010833 2.570312,1.392578 0.905914,0.381745 1.858605,0.678062 2.845703,0.878906 0.987098,0.200844 2.008302,0.304688 3.056641,0.304688 1.048339,0 2.071496,-0.103844 3.058594,-0.304688 0.987098,-0.200844 1.939789,-0.497161 2.845703,-0.878906 0.905914,-0.381745 1.765526,-0.849876 2.570312,-1.392578 0.804787,-0.542703 1.554566,-1.160034 2.238282,-1.84375 0.683716,-0.683717 1.301048,-1.433494 1.84375,-2.238281 0.542702,-0.804788 1.010833,-1.666352 1.392578,-2.572266 0.381744,-0.905914 0.678062,-1.856652 0.878906,-2.84375 0.200844,-0.987098 0.304687,-2.010255 0.304687,-3.058594 0,-1.048338 -0.103843,-2.069542 -0.304687,-3.05664 -0.200844,-0.987098 -0.497162,-1.93979 -0.878906,-2.845703 -0.381745,-0.905914 -0.849876,-1.765526 -1.392578,-2.570313 -0.542702,-0.804787 -1.160034,-1.554565 -1.84375,-2.238281 -0.683716,-0.683716 -1.433495,-1.301048 -2.238282,-1.84375 -0.804786,-0.542702 -1.664398,-1.010834 -2.570312,-1.392578 -0.905914,-0.381745 -1.858605,-0.678063 -2.845703,-0.878907 -0.987098,-0.200844 -2.010255,-0.30664 -3.058594,-0.30664 z"
         id="path4165"
         transform="translate(246.83107,478.3255)"
         inkscape:connector-curvature="0" />
      <path
         style="color:#000000;clip-rule:nonzero;display:inline;overflow:visible;visibility:visible;opacity:1;isolation:auto;mix-blend-mode:normal;color-interpolation:sRGB;color-interpolation-filters:linearRGB;solid-color:#000000;solid-opacity:1;fill:#ffffff;fill-opacity:1;fill-rule:nonzero;stroke:none;stroke-width:1;stroke-linecap:square;stroke-linejoin:round;stroke-miterlimit:4;stroke-dasharray:none;stroke-dashoffset:0;stroke-opacity:1;color-rendering:auto;image-rendering:auto;shape-rendering:auto;text-rendering:auto;enable-background:accumulate"
         d="m 44.34375,4.7070312 a 25,25 0 0 0 -22.5,24.8749998 25,25 0 0 0 2.226562,10.261719 l 4.341797,-2.507812 c -0.503213,-1.189907 -0.894442,-2.437476 -1.160156,-3.730469 -0.26715,-1.299982 -0.408203,-2.646328 -0.408203,-4.023438 0,-1.377108 0.141053,-2.721503 0.408203,-4.021484 0.26715,-1.299981 0.660815,-2.554292 1.167969,-3.75 0.507153,-1.195708 1.127645,-2.332195 1.847656,-3.396485 0.720011,-1.064288 1.53959,-2.057167 2.445313,-2.96289 0.905722,-0.905723 1.898602,-1.725301 2.96289,-2.445313 1.064289,-0.720011 2.200777,-1.340502 3.396485,-1.847656 1.195708,-0.507153 2.450018,-0.900819 3.75,-1.1679686 0.500222,-0.1027971 1.008777,-0.1814898 1.521484,-0.2460938 l 0,-5.0371094 z m 5,0.025391 0,5.0117187 c 0.513417,0.064621 1.022878,0.1432274 1.523438,0.2460938 1.299981,0.2671493 2.554292,0.6608153 3.75,1.1679683 1.195706,0.507154 2.332195,1.127645 3.396484,1.847656 1.064288,0.720012 2.057168,1.53959 2.96289,2.445313 0.905724,0.905723 1.725302,1.898602 2.445313,2.96289 0.720011,1.064289 1.340503,2.200777 1.847656,3.396485 0.507154,1.195708 0.900819,2.450019 1.167969,3.75 0.26715,1.299981 0.40625,2.644376 0.40625,4.021484 0,1.37711 -0.1391,2.723456 -0.40625,4.023438 -0.26576,1.293217 -0.65877,2.540376 -1.162109,3.730469 l 4.333984,2.501953 a 25,25 0 0 0 2.234375,-10.25586 25,25 0 0 0 -22.5,-24.8496088 z M 30.939453,41.650391 26.572266,44.171875 A 25,25 0 0 0 46.84375,54.582031 25,25 0 0 0 67.109375,44.167969 L 62.75,41.650391 c -0.550437,0.723588 -1.131745,1.422761 -1.773438,2.064453 -0.905722,0.905722 -1.898602,1.725301 -2.96289,2.445312 -1.064289,0.720011 -2.200777,1.340503 -3.396484,1.847656 -1.195708,0.507154 -2.450019,0.90082 -3.75,1.167969 -1.299982,0.26715 -2.646329,0.40625 -4.023438,0.40625 -1.377109,0 -2.721503,-0.1391 -4.021484,-0.40625 -1.299982,-0.267149 -2.554292,-0.660813 -3.75,-1.167969 -1.195708,-0.507153 -2.332196,-1.127645 -3.396485,-1.847656 -1.064288,-0.720011 -2.057168,-1.53959 -2.96289,-2.445312 -0.641692,-0.641692 -1.223,-1.340865 -1.773438,-2.064453 z"
         transform="translate(246.83107,478.3255)"
         id="path4167"
         inkscape:connector-curvature="0" />
    </g>
  </g>
  <g
     inkscape:groupmode="layer"
     id="layer3"
     inkscape:label="cut line">
    <rect
       style="color:#000000;clip-rule:nonzero;display:inline;overflow:visible;visibility:visible;opacity:0.98999999;isolation:auto;mix-blend-mode:normal;color-interpolation:sRGB;color-interpolation-filters:linearRGB;solid-color:#000000;solid-opacity:1;fill:none;fill-opacity:1;fill-rule:nonzero;stroke:#ec008b;stroke-width:0.89999998;stroke-linecap:square;stroke-linejoin:miter;stroke-miterlimit:4;stroke-dasharray:none;stroke-dashoffset:0;stroke-opacity:1;color-rendering:auto;image-rendering:auto;shape-rendering:auto;text-rendering:auto;enable-background:accumulate"
       id="rect6260"
       width="1035"
       height="270"
       x="0"
       y="-2e-06"
       rx="45"
       ry="45" />
  </g>
</svg>
