<?xml version="1.0" encoding="UTF-8" standalone="no"?>
<!-- Created with Inkscape (http://www.inkscape.org/) -->

<svg
   xmlns:dc="http://purl.org/dc/elements/1.1/"
   xmlns:cc="http://creativecommons.org/ns#"
   xmlns:rdf="http://www.w3.org/1999/02/22-rdf-syntax-ns#"
   xmlns:svg="http://www.w3.org/2000/svg"
   xmlns="http://www.w3.org/2000/svg"
   xmlns:sodipodi="http://sodipodi.sourceforge.net/DTD/sodipodi-0.dtd"
   xmlns:inkscape="http://www.inkscape.org/namespaces/inkscape"
   width="354.33069"
   height="354.33069"
   id="svg2"
   version="1.1"
   inkscape:version="0.48.4 r9939"
   sodipodi:docname="smc-square-v1.svg">
  <defs
     id="defs4" />
  <sodipodi:namedview
     id="base"
     pagecolor="#ffffff"
     bordercolor="#666666"
     borderopacity="1.0"
     inkscape:pageopacity="0"
     inkscape:pageshadow="2"
     inkscape:zoom="1.4"
     inkscape:cx="172.78148"
     inkscape:cy="182.64076"
     inkscape:document-units="px"
     inkscape:current-layer="text3014"
     showgrid="false"
     units="cm"
     inkscape:window-width="1366"
     inkscape:window-height="744"
     inkscape:window-x="0"
     inkscape:window-y="24"
     inkscape:window-maximized="1" />
  <metadata
     id="metadata7">
    <rdf:RDF>
      <cc:Work
         rdf:about="">
        <dc:format>image/svg+xml</dc:format>
        <dc:type
           rdf:resource="http://purl.org/dc/dcmitype/StillImage" />
        <dc:title />
      </cc:Work>
    </rdf:RDF>
  </metadata>
  <g
     inkscape:label="Layer 1"
     inkscape:groupmode="layer"
     id="layer1"
     transform="translate(0,-698.03017)">
    <rect
       style="color:#000000;fill:#1919bf;fill-opacity:1;fill-rule:nonzero;stroke:none;stroke-width:0;marker:none;visibility:visible;display:inline;overflow:visible;filter:url(#filter4103);enable-background:accumulate"
       id="rect3225-2-4"
       width="340"
       height="340"
       x="7.1653442"
       y="705.1955"
       rx="24.981667"
       ry="25.144945" />
    <g
       transform="matrix(2.5072609,0,0,2.5072609,-772.33452,-1809.1953)"
       style="opacity:0.98999999000000005;color:#000000;fill:#ffffff;fill-opacity:1;fill-rule:nonzero;stroke:none;stroke-width:1;marker:none;visibility:visible;display:inline;overflow:visible;enable-background:accumulate"
       id="g4199-9-5-9">
      <path
         inkscape:connector-curvature="0"
         style="opacity:0.98999999000000005;color:#000000;fill:#ffffff;fill-opacity:1;fill-rule:nonzero;stroke:none;stroke-width:1;marker:none;visibility:visible;display:inline;overflow:visible;enable-background:accumulate"
         d="m 360.76623,1008.6494 c -3.68285,0.1551 -7.4547,1.1794 -11.1875,2.6563 -8.5321,3.3758 -13.14971,11.534 -13.71875,17.75 -0.12803,1.3986 -0.10381,2.6938 -0.0312,3.9375 -5.0441,1.8478 -8.66151,4.3946 -10.8125,7.4687 -2.37775,3.3982 -2.89652,7.3163 -2.125,10.7813 1.4864,6.6756 7.17187,12.1081 13.78125,12.5 l 0.34375,-6.8125 c -0.88377,-0.6165 -1.4375,-1.6597 -1.4375,-2.8438 0,-1.8945 1.47757,-3.4375 3.3125,-3.4375 0.71238,0 1.36531,0.2309 1.90625,0.625 l 7.21875,-4.875 c -0.01,-0.1193 -0.0312,-0.2218 -0.0312,-0.3437 0,-2.3039 1.79978,-4.1875 4.03125,-4.1875 0.38353,0 0.74222,0.084 1.09375,0.1875 l 8.1875,-9.8125 c -0.37329,-0.5547 -0.59375,-1.2109 -0.59375,-1.9375 0,-1.8945 1.47757,-3.4375 3.3125,-3.4375 1.44173,0 2.66524,0.956 3.125,2.2812 l 25.6875,0.9063 c 0.47739,-0.6117 1.21113,-1 2.03125,-1 1.43838,0 2.625,1.2024 2.625,2.6875 0,0.1533 -0.0386,0.2912 -0.0625,0.4375 l 16.53125,20.9062 c 0.16036,-0.032 0.33063,-0.062 0.5,-0.062 1.43838,0 2.59375,1.2024 2.59375,2.6875 0,0.824 -0.37224,1.538 -0.9375,2.0313 l 1.71875,5.9375 c 0.26713,0 0.38639,0 0.65625,0 9.11214,-1.0569 14.95565,-7.9389 16.125,-15.375 1.27168,-8.0869 -2.70707,-17.2056 -12,-20.6563 -5.22068,-1.9385 -9.5543,-1.8961 -13.09375,-1 -3.57317,-9.5182 -5.59893,-12.5154 -13,-15.6562 -7.40106,-3.1408 -18.38137,-0.9588 -22.1875,2.1875 -3.76017,-3.1171 -7.81906,-4.4198 -12,-4.5313 -0.52262,-0.014 -1.03638,-0.022 -1.5625,0 z m 57.0625,55.0313 c -0.97946,0 -1.46185,-3e-4 -2.40625,0 l 1.5,5.1562 -3.875,-5.1562 c -1.65877,6e-4 -2.81174,0 -4.375,0 l 1.3125,1.75 -3.1875,9.25 -19.3125,4.625 c -0.26841,-0.4802 -0.6025,-0.8826 -1,-1.25 l 3.5625,-14.3438 c -1.46263,0 -3.36614,0 -4.8125,0 l -3.25,13.125 c -0.21809,0.052 -0.41881,0.1382 -0.625,0.2188 l -11.40625,-13.3438 c -1.75462,0 -4.21774,0.028 -6.0625,0.031 l 14.40625,16.8125 c -0.0325,0.1237 -0.0702,0.2477 -0.0937,0.375 l -31.84375,3.5312 c -0.21654,-0.2295 -0.47864,-0.4338 -0.75,-0.5937 l 10.21875,-16.1563 c 0.20737,0.055 0.4323,0.094 0.65625,0.094 1.43838,0 2.59375,-1.2025 2.59375,-2.6875 0,-0.5073 -0.13784,-0.9651 -0.375,-1.375 -1.42507,0 -2.93502,0 -4.4375,0 -0.23085,0.4026 -0.375,0.8724 -0.375,1.375 0,0.8231 0.34202,1.538 0.90625,2.0312 l -8.65625,13.7188 3.1875,-17.125 c -0.86934,6e-4 -1.50729,0.031 -2.40625,0.031 l -3.625,19.7188 c -0.93269,0.197 -1.68685,0.8053 -2.15625,1.625 l -1.59375,-0.3125 c -0.0242,-1.0606 -0.64865,-1.9601 -1.53125,-2.375 l 0.96875,-18.6563 c -0.82689,10e-5 -1.11647,0 -1.96875,0 -0.11627,0 -0.22802,-0.024 -0.34375,-0.031 l -0.96875,18.7812 c -0.81186,0.4554 -1.375,1.3228 -1.375,2.3438 0,1.485 1.18662,2.6875 2.625,2.6875 0.11598,0 0.23178,-0.016 0.34375,-0.031 l 18.0625,19.125 c -0.006,0.075 0,0.1426 0,0.2188 0,1.485 1.15537,2.6875 2.59375,2.6875 0.53006,0 1.02613,-0.188 1.4375,-0.4688 l 9.78125,5.4688 c -0.0182,0.1453 -0.0312,0.287 -0.0312,0.4375 0,1.8944 1.47757,3.4375 3.3125,3.4375 1.74092,0 3.17074,-1.3967 3.3125,-3.1563 l 26.53125,-8 c 0.60547,0.8414 1.56301,1.4063 2.65625,1.4063 1.83493,0 3.34375,-1.5431 3.34375,-3.4375 0,-0.8056 -0.26849,-1.5397 -0.71875,-2.125 l 11.5,-26.125 c 1.82066,-0.017 3.3125,-1.5225 3.3125,-3.4063 0,-1.6577 -1.14227,-3.0551 -2.65625,-3.375 l -1.90625,-6.5312 z m -78.84375,0.094 c 3.33381,-4e-4 4.97217,0 7.9375,0 l 1.875,-10.0937 -6.625,0.7812 c -0.16755,1.5618 -1.34214,2.8214 -2.84375,3.0313 l -0.34375,6.2812 z m 10.34375,-0.031 c 1.7838,0 3.26573,0 4.9375,0 0.43135,-0.7524 1.19486,-1.2684 2.09375,-1.3125 l 1.28125,-5.9688 -2.96875,-3.4687 -3.4375,0.4062 -1.90625,10.3438 z m 9.375,0 c 1.66593,0 3.60901,0 5.1875,0 l -5.3125,-6.1875 -1.09375,5.0625 c 0.50907,0.2223 0.93516,0.6348 1.21875,1.125 z m 11.25,-0.031 c 4.57463,-0.01 10.93224,0.01 15.28125,0 l 4.9375,-19.875 -1.21875,0.1563 -14.0625,5.375 c 0.0477,0.2036 0.0937,0.4062 0.0937,0.625 0,1.485 -1.18662,2.6875 -2.625,2.6875 -1.00595,0 -1.84741,-0.6068 -2.28125,-1.4688 l -9.84375,1.1563 9.71875,11.3437 z m 20.09375,0 c 5.66059,-0.01 11.96998,-0.026 18.625,-0.031 l -14.03125,-18.5313 -4.59375,18.5625 z m 23,-0.031 c 0.90048,-4e-4 1.44286,2e-4 2.375,0 l -1.5625,-5.375 c -0.0604,-0.014 -0.1288,-0.013 -0.1875,-0.031 l -1.46875,4.3125 0.84375,1.0938 z m -45.90625,-32.2188 c -0.46515,1.3148 -1.69057,2.25 -3.125,2.25 -0.12009,0 -0.22695,-0.018 -0.34375,-0.031 l -1.90625,8.9063 28.25,-3.4062 c 0.51328,-1.1438 1.50616,-2.0137 2.71875,-2.3126 l 0.625,-2.9687 c -0.49378,-0.3694 -0.8521,-0.9005 -1,-1.5313 l -25.21875,-0.9062 z m 28.875,2.6875 c -0.11895,0.06 -0.24673,0.1154 -0.375,0.1563 l -0.53125,2.75 c 1.51308,0.6027 2.59375,2.1002 2.59375,3.875 0,0.6943 -0.17813,1.3303 -0.46875,1.9062 l 14.125,18.625 1.3125,-3.8125 c -0.50055,-0.49 -0.84375,-1.1691 -0.84375,-1.9375 0,-0.4445 0.12754,-0.8494 0.3125,-1.2187 l -16.125,-20.3438 z m -33.71875,0.5625 -7.21875,8.625 c 0.0143,0.017 0.0172,0.045 0.0312,0.062 l 5.46875,-0.6875 1.71875,-8 z m 21.84375,9.8438 -23.40625,2.8437 -0.8125,3.8438 9.84375,-1.125 c -0.002,-0.043 0,-0.082 0,-0.125 0,-1.4851 1.15537,-2.6875 2.59375,-2.6875 0.82012,0 1.55386,0.3883 2.03125,1 l 9.75,-3.75 z m -24.59375,2.9687 -3.125,0.375 2.4375,2.875 0.6875,-3.25 z m -10.6875,1.0938 -6.78125,4.5937 c 0.008,0.032 0.0242,0.062 0.0312,0.094 l 6.90625,-0.7813 0.59375,-3.1875 c -0.27369,-0.2142 -0.53712,-0.4407 -0.75,-0.7187 z m 2.96875,1.5625 -0.375,2.0625 2.34375,-0.2813 -1.53125,-1.7812 c -0.0846,0.01 -0.1641,0.031 -0.25,0.031 -0.0648,0 -0.1235,-0.028 -0.1875,-0.031 z m 59,16.375 4.59375,6.0625 -7.28125,1.75 2.6875,-7.8125 z m 4.84375,9.5625 -10.4375,23.6562 0.21875,-14.6875 c 1.14001,-0.2103 2,-1.2312 2,-2.4687 0,-0.9896 -0.57034,-1.8391 -1.375,-2.25 l 0.71875,-2.125 8.875,-2.125 z m -10.1875,2.4375 -0.53125,1.5312 c -1.31726,0.034 -2.375,1.1631 -2.375,2.5313 0,1.1359 0.7173,2.0936 1.71875,2.4062 l -0.28125,16.9375 c -0.80152,0.248 -1.4849,0.8049 -1.90625,1.5313 l -14.5,-3.1875 c 0,-1.4851 -1.15537,-2.6875 -2.59375,-2.6875 -1.39891,0 -2.56342,1.1338 -2.625,2.5625 l -3.5,0.875 4.375,-13.9688 c 2.44593,-0.064 4.43097,-1.9142 4.8125,-4.3437 l 17.40625,-4.1875 z m -26.75,5.8125 c 0.31669,0.5998 0.73963,1.1352 1.25,1.5625 l -5.0625,16.125 -10.78125,2.7187 -17.09375,-16.5937 c 0.0365,-0.089 0.0645,-0.1886 0.0937,-0.2813 l 31.59375,-3.5312 z m -38.46875,2.9375 0.46875,0.094 c 0.0294,0.1815 0.0691,0.3606 0.125,0.5313 l -0.59375,-0.625 z m 2.625,2.7812 c 0.33913,0.1205 0.71498,0.1875 1.09375,0.1875 0.0768,0 0.14325,-0.026 0.21875,-0.031 l 14.4375,14.0625 c -0.22145,-0.063 -0.44657,-0.125 -0.6875,-0.125 -0.49211,0 -0.95119,0.1613 -1.34375,0.4062 l -13.71875,-14.5 z m 39.71875,11.2188 c 0.38893,0.9797 1.31723,1.6875 2.40625,1.6875 1.05451,0 1.93413,-0.6633 2.34375,-1.5938 l 12.875,2.875 -24.6875,7.4063 2.9375,-9.3125 4.125,-1.0625 z m -8.09375,2.0625 -2.5625,8.25 c -0.20604,0.033 -0.40208,0.086 -0.59375,0.1562 l -6.21875,-6.0312 9.375,-2.375 z m -13.34375,3.375 1.6875,1.625 -2.3125,-1.2813 c 0.005,-0.064 -7.5e-4,-0.1224 0,-0.1875 l 0.625,-0.1562 z"
         id="path5088-3-6-9" />
    </g>
    <g
       transform="matrix(0.77310329,0,0,0.77310335,-68.186483,243.32338)"
       style="font-size:35.75294876px;font-style:normal;font-variant:normal;font-weight:bold;font-stretch:normal;line-height:85.00000238%;letter-spacing:4.4691186px;word-spacing:0px;fill:#ffffff;fill-opacity:1;stroke:none;display:inline;font-family:OCRABold;-inkscape-font-specification:OCRABold Bold"
       id="text3014">
      <g
         id="g3061"
         transform="translate(-1.4897063,0)">
        <g
           style="font-size:63.31251526px;font-style:normal;font-variant:normal;font-weight:bold;font-stretch:normal;line-height:125%;letter-spacing:-9.87811661px;word-spacing:0px;fill:#ffffff;fill-opacity:1;stroke:none;font-family:OCRA;-inkscape-font-specification:OCRA Bold"
           id="text3031">
          <path
             d="m 113.28584,1004.6293 c -10e-6,-0.8863 0.29545,-1.6461 0.88637,-2.2792 0.63312,-0.6331 1.39287,-0.9497 2.27925,-0.9497 0.88637,0 1.64612,0.3166 2.27925,0.9497 0.63312,0.6331 0.94968,1.3929 0.94969,2.2792 -1e-5,0.5909 0.21103,1.0974 0.63313,1.5195 0.42207,0.4221 0.92856,0.6332 1.5195,0.6331 l 15.76481,0 c 0.54868,1e-4 0.82303,-0.2743 0.82307,-0.823 l -23.67888,-30.51665 c -0.9708,-1.35062 -1.4562,-2.82791 -1.45619,-4.43187 l 0,-0.18994 c -10e-6,-1.89933 0.69643,-3.54545 2.08931,-4.93838 1.43507,-1.39282 3.12341,-2.08926 5.065,-2.08931 l 15.76482,0 c 2.32142,5e-5 4.32632,0.84422 6.01469,2.5325 1.7305,1.68838 2.59577,3.69328 2.59581,6.01469 -4e-5,0.88642 -0.3166,1.64617 -0.94969,2.27925 -0.63316,0.63316 -1.39291,0.94973 -2.27925,0.94969 -0.88641,4e-5 -1.64616,-0.31653 -2.27925,-0.94969 -0.59095,-0.63308 -0.88641,-1.39283 -0.88637,-2.27925 -4e-5,-0.54867 -0.23218,-1.03406 -0.69644,-1.45619 -0.42212,-0.46425 -0.92862,-0.69639 -1.5195,-0.69643 l -15.76482,0 c -0.50651,4e-5 -0.75976,0.21108 -0.75975,0.63312 l 0,0.18994 0,0.25325 23.55226,30.26337 c 1.05517,1.2663 1.58277,2.7436 1.58281,4.4319 -0.0845,1.9838 -0.8231,3.6932 -2.21594,5.1283 -1.3507,1.3929 -3.01793,2.0893 -5.00169,2.0893 l -15.76481,0 c -2.32148,0 -4.32637,-0.8442 -6.01469,-2.5325 -1.68834,-1.6883 -2.53251,-3.6932 -2.5325,-6.0147"
             style=""
             id="path3807" />
          <path
             d="m 145.04502,1003.6796 0,-3.5455 c 0,-2.61687 0.92858,-4.85391 2.78575,-6.71109 1.85716,-1.85715 4.07309,-2.78573 6.64782,-2.78575 l 12.21931,0 c 1.01297,2e-5 1.94156,0.14775 2.78575,0.44319 -3e-5,-0.29544 -0.0211,-0.78084 -0.0633,-1.45619 -3e-5,-0.71752 -0.0211,-1.22402 -0.0633,-1.5195 -3e-5,-0.33764 -0.0422,-0.80194 -0.12663,-1.39288 -0.0422,-0.59089 -0.12665,-1.01297 -0.25325,-1.26625 -0.12665,-0.29543 -0.31659,-0.61199 -0.56981,-0.94969 -0.21107,-0.33763 -0.50653,-0.56978 -0.88637,-0.69643 -0.3377,-0.1266 -0.75978,-0.18991 -1.26625,-0.18994 l -11.77613,0 c -0.88639,3e-5 -1.64614,-0.29543 -2.27925,-0.88638 -0.59093,-0.63309 -0.88639,-1.39284 -0.88638,-2.27925 -1e-5,-0.88634 0.29545,-1.64609 0.88638,-2.27925 0.63311,-0.63309 1.39286,-0.94965 2.27925,-0.94968 l 11.77613,0 c 2.57467,3e-5 4.76951,0.90751 6.5845,2.72243 1.85713,1.77279 2.82792,3.92541 2.91237,6.45788 l 0.82307,23.61558 c -4e-5,0.8864 -0.33771,1.6461 -1.013,2.2792 -0.63317,0.591 -1.39292,0.8864 -2.27926,0.8864 -0.8442,0 -1.58284,-0.3165 -2.21593,-0.9497 -0.59095,-0.6331 -0.88641,-1.3717 -0.88638,-2.2159 l -4.68512,2.7224 c -0.42212,0.2955 -0.94972,0.4432 -1.58282,0.4432 l -9.43356,0 c -2.57473,0 -4.79066,-0.9286 -6.64782,-2.7857 -1.85717,-1.8572 -2.78575,-4.0942 -2.78575,-6.7112 m 6.39457,0 c -2e-5,0.8442 0.29544,1.5829 0.88637,2.216 0.5909,0.5909 1.30845,0.8864 2.15263,0.8863 l 8.54719,0 6.77444,-3.9886 0,-2.7858 c -4e-5,-0.75973 -0.3377,-1.43506 -1.013,-2.02599 -0.63316,-0.63311 -1.3296,-0.94967 -2.08932,-0.94969 l -12.21931,0 c -0.80198,2e-5 -1.51952,0.31658 -2.15263,0.94969 -0.59093,0.59093 -0.88639,1.30847 -0.88637,2.15259 l 0,3.5455"
             style=""
             id="path3809" />
          <path
             d="m 176.27217,998.99451 0,-10.31994 c 0,-0.46427 0.0211,-0.92856 0.0633,-1.39288 0.0844,-0.46426 0.14772,-0.86524 0.18993,-1.20293 0.0844,-0.33764 0.23214,-0.71752 0.44319,-1.13963 0.25324,-0.42205 0.42208,-0.73862 0.5065,-0.94969 0.0844,-0.21101 0.29545,-0.50647 0.63313,-0.88637 0.33765,-0.42205 0.54869,-0.69641 0.63312,-0.82306 0.0844,-0.1266 0.33766,-0.37985 0.75975,-0.75975 0.46428,-0.37985 0.71753,-0.59089 0.75975,-0.63313 0.0844,-0.0844 0.35876,-0.31653 0.82306,-0.69644 0.50649,-0.42205 0.78085,-0.65419 0.82307,-0.69643 1.73052,-1.51947 3.77763,-2.27922 6.14131,-2.27925 l 4.74844,0 c 0.67531,3e-5 1.32954,0.0844 1.96269,0.25325 0.6331,0.12666 1.1396,0.27438 1.5195,0.44318 0.42205,0.12666 0.94966,0.40102 1.58281,0.82307 0.6331,0.42211 1.03408,0.69647 1.20294,0.82306 0.1688,0.12666 0.56978,0.48543 1.20294,1.07631 0.6753,0.59095 1.05517,0.90751 1.13962,0.94969 l 0,-1.13963 c -3e-5,-0.88634 0.29543,-1.64609 0.88638,-2.27925 0.63309,-0.63309 1.39284,-0.94965 2.27925,-0.94968 0.88634,3e-5 1.64609,0.31659 2.27925,0.94968 0.63308,0.63316 0.94965,1.39291 0.94969,2.27925 l 0,34.69526 c -4e-5,0.6753 -0.0422,1.2874 -0.12663,1.8361 -0.0845,0.5909 -0.27439,1.1607 -0.56981,1.7094 -0.2955,0.5487 -0.52764,0.9708 -0.69644,1.2663 -0.12666,0.3376 -0.46433,0.7808 -1.013,1.3295 -0.54874,0.5487 -0.88641,0.8864 -1.013,1.013 -0.0844,0.1266 -0.48543,0.5065 -1.20294,1.1396 l -1.07631,0.8864 c -1.73057,1.5195 -3.77768,2.2793 -6.14131,2.2793 l -13.35895,0 c -0.88638,0 -1.64613,-0.3166 -2.27925,-0.9497 -0.63313,-0.5909 -0.94969,-1.3296 -0.94968,-2.216 -1e-5,-0.8863 0.31655,-1.6461 0.94968,-2.2792 0.63312,-0.6331 1.39287,-0.9497 2.27925,-0.9497 l 13.35895,0 c 0.59088,0 1.11849,-0.1477 1.58281,-0.4432 0.50647,-0.2954 1.05518,-0.7175 1.64612,-1.2662 0.59089,-0.5487 0.94966,-0.8864 1.07632,-1.013 0.75971,-0.591 1.13959,-1.3718 1.13962,-2.3426 l 0,-8.9271 c -0.97082,0.8864 -1.77278,1.5829 -2.40587,2.0893 -0.63316,0.5066 -1.51953,1.0131 -2.65913,1.5196 -1.13965,0.4642 -2.32148,0.6964 -3.5455,0.6964 l -4.74844,0 c -0.63314,0 -1.28737,-0.063 -1.96269,-0.1899 -0.63314,-0.1689 -1.13964,-0.3166 -1.5195,-0.4432 -0.37989,-0.1267 -0.88639,-0.401 -1.5195,-0.8231 -0.63314,-0.4643 -1.03412,-0.7386 -1.20294,-0.8231 -0.12663,-0.1266 -0.52761,-0.5065 -1.20293,-1.1396 l -1.07632,-0.8864 c -2.19484,-1.8993 -3.29225,-4.3052 -3.29225,-7.21759 m 6.33125,0 c -1e-5,1.13959 0.61201,2.27929 1.83607,3.41889 1.26623,1.1396 2.46917,1.7094 3.60881,1.7094 l 4.74844,0 c 0.84414,0 1.51947,-0.2532 2.026,-0.7597 l 5.44488,-4.68515 c 0.75971,-0.5909 1.13959,-1.37176 1.13962,-2.34257 l 0,-4.93837 c -3e-5,-0.88635 -0.37991,-1.66721 -1.13962,-2.34256 l -5.44488,-4.68513 c -0.50653,-0.50647 -1.18186,-0.75972 -2.026,-0.75975 l -4.74844,0 c -0.63314,3e-5 -1.20295,0.14776 -1.70944,0.44319 -0.46431,0.29548 -0.9497,0.69646 -1.45618,1.20293 -0.50652,0.50653 -0.88639,0.8442 -1.13963,1.013 -0.75976,0.75978 -1.13964,1.56174 -1.13963,2.40588 l 0,10.31994"
             style=""
             id="path3811" />
          <path
             d="m 208.08731,1001.7169 0,-13.04233 c -1e-5,-1.47727 0.33765,-2.84904 1.013,-4.11531 0.67532,-1.26622 1.28734,-2.1526 1.83606,-2.65913 0.5487,-0.50647 1.47728,-1.30842 2.78575,-2.40587 1.73053,-1.51947 3.77763,-2.27922 6.14131,-2.27925 l 7.91407,0 c 0.42205,3e-5 0.82303,0.0211 1.20294,0.0633 0.42205,0.0422 0.84413,0.12666 1.26625,0.25325 0.42205,0.12666 0.75972,0.23218 1.013,0.31656 0.25322,0.0845 0.59088,0.25329 1.013,0.5065 0.42205,0.25328 0.6964,0.42212 0.82306,0.5065 0.1688,0.0844 0.46426,0.3166 0.88637,0.69644 0.42205,0.3377 0.6753,0.52764 0.75975,0.56981 0.0844,0.0422 0.35874,0.27439 0.82307,0.69644 l 0.69643,0.63312 c 2.23701,1.94162 3.35553,4.34749 3.35557,7.21763 l 0,7.85075 c -4e-5,0.88639 -0.3166,1.64614 -0.94969,2.27925 -0.63316,0.63314 -1.39291,0.9497 -2.27925,0.94969 l -21.90613,0 0,1.96264 c -10e-6,0.5066 0.12661,0.992 0.37987,1.4562 0.25324,0.4643 0.50649,0.8231 0.75975,1.0763 0.29545,0.2533 0.69643,0.591 1.20294,1.013 0.50649,0.3799 0.84415,0.6332 1.013,0.7598 0.63311,0.5065 1.30844,0.7598 2.026,0.7597 l 16.52457,0 c 0.88634,1e-4 1.64609,0.3166 2.27925,0.9497 0.63309,0.6332 0.94965,1.3718 0.94969,2.216 -4e-5,0.8864 -0.3166,1.6461 -0.94969,2.2792 -0.63316,0.6332 -1.39291,0.9497 -2.27925,0.9497 l -16.52457,0 c -0.46431,0 -0.90749,-0.021 -1.32956,-0.063 -0.37989,-0.042 -0.78087,-0.1266 -1.20294,-0.2532 -0.37989,-0.1267 -0.71756,-0.2322 -1.013,-0.3166 -0.29547,-0.1266 -0.63314,-0.2955 -1.013,-0.5065 -0.33768,-0.2111 -0.61203,-0.3799 -0.82306,-0.5065 -0.21106,-0.1266 -0.50651,-0.3377 -0.88638,-0.6331 -0.33767,-0.2955 -0.56982,-0.4854 -0.69643,-0.5698 -0.12664,-0.1267 -0.40099,-0.3588 -0.82307,-0.6965 -0.37988,-0.3799 -0.61203,-0.612 -0.69643,-0.6964 -2.19485,-1.815 -3.29226,-4.2209 -3.29225,-7.2177 m 6.39456,-8.3572 18.7405,0 0,-4.68513 c -3e-5,-1.09739 -0.63315,-2.21591 -1.89937,-3.35556 -1.26628,-1.1396 -2.44811,-1.70941 -3.5455,-1.70944 l -7.91407,0 c -0.59093,3e-5 -1.11854,0.12665 -1.58281,0.37987 -0.46431,0.25328 -1.01302,0.69647 -1.64613,1.32957 -0.63314,0.63315 -0.99191,0.97082 -1.07631,1.013 -0.71755,0.59094 -1.07632,1.37179 -1.07631,2.34256 l 0,4.68513"
             style=""
             id="path3813" />
          <path
             d="m 245.25595,1009.9476 0,-46.15485 7.97738,0 7.78744,11.07969 7.72412,-11.07969 8.04069,0 0,46.15485 c -3e-5,0.8864 -0.3166,1.6461 -0.94968,2.2792 -0.63317,0.6332 -1.39292,0.9497 -2.27925,0.9497 -0.88641,0 -1.64616,-0.3165 -2.27925,-0.9497 -0.59095,-0.6331 -0.88641,-1.3928 -0.88638,-2.2792 l 0,-37.35441 -6.20463,8.86375 0,1.64613 c -2e-5,0.8864 -0.31658,1.64615 -0.94968,2.27925 -0.63315,0.63315 -1.3718,0.94971 -2.21594,0.94969 -0.8864,2e-5 -1.64615,-0.31654 -2.27925,-0.94969 -0.63315,-0.6331 -0.94971,-1.39285 -0.94969,-2.27925 l 0,-1.64613 -6.14131,-8.73712 0,37.22778 c -2e-5,0.8864 -0.31658,1.6461 -0.94969,2.2792 -0.63314,0.6332 -1.39289,0.9497 -2.27925,0.9497 -0.88639,0 -1.64614,-0.3165 -2.27925,-0.9497 -0.59093,-0.6331 -0.88639,-1.3928 -0.88638,-2.2792"
             id="path3815"
             inkscape:connector-curvature="0" />
          <path
             d="m 277.07108,1003.6796 0,-3.5455 c -10e-6,-2.61687 0.92857,-4.85391 2.78575,-6.71109 1.85715,-1.85715 4.07309,-2.78573 6.64781,-2.78575 l 12.21932,0 c 1.01297,2e-5 1.94155,0.14775 2.78575,0.44319 -3e-5,-0.29544 -0.0211,-0.78084 -0.0633,-1.45619 -3e-5,-0.71752 -0.0211,-1.22402 -0.0633,-1.5195 -3e-5,-0.33764 -0.0422,-0.80194 -0.12662,-1.39288 -0.0422,-0.59089 -0.12666,-1.01297 -0.25325,-1.26625 -0.12666,-0.29543 -0.3166,-0.61199 -0.56982,-0.94969 -0.21107,-0.33763 -0.50653,-0.56978 -0.88637,-0.69643 -0.3377,-0.1266 -0.75978,-0.18991 -1.26625,-0.18994 l -11.77613,0 c -0.88639,3e-5 -1.64614,-0.29543 -2.27925,-0.88638 -0.59093,-0.63309 -0.88639,-1.39284 -0.88637,-2.27925 -2e-5,-0.88634 0.29544,-1.64609 0.88637,-2.27925 0.63311,-0.63309 1.39286,-0.94965 2.27925,-0.94968 l 11.77613,0 c 2.57468,3e-5 4.76951,0.90751 6.5845,2.72243 1.85713,1.77279 2.82792,3.92541 2.91238,6.45788 l 0.82306,23.61558 c -4e-5,0.8864 -0.33771,1.6461 -1.013,2.2792 -0.63316,0.591 -1.39291,0.8864 -2.27925,0.8864 -0.8442,0 -1.58285,-0.3165 -2.21594,-0.9497 -0.59095,-0.6331 -0.88641,-1.3717 -0.88638,-2.2159 l -4.68512,2.7224 c -0.42211,0.2955 -0.94972,0.4432 -1.58281,0.4432 l -9.43357,0 c -2.57472,0 -4.79066,-0.9286 -6.64781,-2.7857 -1.85718,-1.8572 -2.78576,-4.0942 -2.78575,-6.7112 m 6.39456,0 c -10e-6,0.8442 0.29544,1.5829 0.88638,2.216 0.5909,0.5909 1.30844,0.8864 2.15262,0.8863 l 8.54719,0 6.77444,-3.9886 0,-2.7858 c -3e-5,-0.75973 -0.3377,-1.43506 -1.013,-2.02599 -0.63316,-0.63311 -1.32959,-0.94967 -2.08931,-0.94969 l -12.21932,0 c -0.80197,2e-5 -1.51951,0.31658 -2.15262,0.94969 -0.59094,0.59093 -0.88639,1.30847 -0.88638,2.15259 l 0,3.5455"
             id="path3817"
             inkscape:connector-curvature="0" />
          <path
             d="m 308.06458,982.72319 c -0.59092,-0.63309 -0.88638,-1.39284 -0.88637,-2.27925 -10e-6,-0.88634 0.29545,-1.64609 0.88637,-2.27925 0.63312,-0.63309 1.39287,-0.94965 2.27925,-0.94968 l 3.10232,0 0,-7.53419 c -2e-5,-0.88634 0.29544,-1.64608 0.88637,-2.27925 0.63311,-0.63308 1.39286,-0.94965 2.27925,-0.94969 0.88636,4e-5 1.64611,0.31661 2.27925,0.94969 0.63311,0.63317 0.94967,1.39291 0.94969,2.27925 l 0,7.53419 12.47257,0 c 0.88634,3e-5 1.62498,0.31659 2.21593,0.94968 0.63309,0.63316 0.94966,1.39291 0.94969,2.27925 -3e-5,0.88641 -0.3166,1.64616 -0.94969,2.27925 -0.59095,0.59095 -1.32959,0.88641 -2.21593,0.88638 l -12.47257,0 0,20.07003 c -2e-5,0.8442 0.29544,1.5829 0.88638,2.216 0.59089,0.5909 1.30843,0.8864 2.15262,0.8863 l 6.33125,0 c 0.84414,1e-4 1.51947,-0.2743 2.026,-0.823 0.54868,-0.5909 0.90745,-1.2029 1.07632,-1.8361 0.21101,-0.6753 0.56978,-1.2873 1.07631,-1.836 0.54867,-0.5909 1.24511,-0.8864 2.08931,-0.8864 0.88634,0 1.64609,0.3166 2.27925,0.9497 0.63309,0.6331 0.94965,1.3929 0.94969,2.2792 l 0,0.5065 c -0.42212,2.1949 -1.54064,4.0942 -3.35556,5.6982 -1.77279,1.5617 -3.81989,2.3425 -6.14132,2.3425 l -6.33125,0 c -2.57473,0 -4.79066,-0.9286 -6.64781,-2.7857 -1.85718,-1.8994 -2.78577,-4.1364 -2.78575,-6.7112 l 0,-20.07003 -3.10232,0 c -0.88638,3e-5 -1.64613,-0.29543 -2.27925,-0.88638"
             id="path3819"
             inkscape:connector-curvature="0" />
          <path
             d="m 338.99333,1009.9476 0,-42.98922 c 0,-0.84412 0.29545,-1.58277 0.88638,-2.21594 0.63311,-0.63308 1.39286,-0.94964 2.27925,-0.94969 0.88636,5e-5 1.64611,0.31661 2.27925,0.94969 0.63311,0.63317 0.94967,1.37182 0.94969,2.21594 l 0,15.63819 6.078,-3.86206 c 1.60389,-1.01297 3.31333,-1.51947 5.12831,-1.5195 l 3.60882,0 c 2.57467,3e-5 4.7695,0.90751 6.5845,2.72243 1.85713,1.77279 2.82792,3.92541 2.91237,6.45788 l 0.75975,23.55228 c -4e-5,0.8864 -0.3166,1.6461 -0.94969,2.2792 -0.59095,0.6332 -1.32959,0.9497 -2.21593,0.9497 -0.8442,0 -1.58285,-0.2954 -2.21594,-0.8864 -0.63316,-0.6331 -0.94972,-1.3717 -0.94969,-2.2159 l -0.82306,-23.48894 c -0.0845,-0.80193 -0.42212,-1.49837 -1.013,-2.08932 -0.54874,-0.59088 -1.24518,-0.88634 -2.08931,-0.88637 l -4.49519,0 -10.31994,6.64781 0,19.69022 c -2e-5,0.8864 -0.31658,1.6461 -0.94969,2.2792 -0.63314,0.6332 -1.39289,0.9497 -2.27925,0.9497 -0.88639,0 -1.64614,-0.3165 -2.27925,-0.9497 -0.59093,-0.6331 -0.88638,-1.3928 -0.88638,-2.2792"
             id="path3821"
             inkscape:connector-curvature="0" />
          <path
             d="m 375.09773,988.48463 c -1e-5,-2.23701 0.50649,-4.41074 1.5195,-6.52119 l 6.39457,-12.91575 c 0.67531,-1.51945 1.79383,-2.7646 3.35556,-3.73544 1.6039,-1.01295 3.35554,-1.51945 5.25494,-1.5195 l 9.18915,0 c 0.88634,5e-5 1.64608,0.31661 2.27925,0.94969 0.63308,0.63317 0.94965,1.37182 0.94968,2.21594 -3e-5,0.88642 -0.3166,1.64617 -0.94968,2.27925 -0.63317,0.63317 -1.39291,0.94973 -2.27925,0.94969 l -9.18915,0 c -1.30848,4e-5 -2.23707,0.59096 -2.78575,1.77275 l -6.52119,12.85244 c -0.54872,1.18186 -0.82308,2.4059 -0.82306,3.67212 -2e-5,1.26628 0.27434,2.49032 0.82306,3.67213 l 6.52119,12.85244 c 0.54868,1.1818 1.47727,1.7728 2.78575,1.7727 l 9.18915,0 c 0.88634,1e-4 1.64608,0.3166 2.27925,0.9497 0.63308,0.6332 0.94965,1.3718 0.94968,2.216 -3e-5,0.8864 -0.3166,1.6461 -0.94968,2.2792 -0.63317,0.6332 -1.39291,0.9497 -2.27925,0.9497 l -9.18915,0 c -1.85719,0 -3.56663,-0.5065 -5.12832,-1.5195 -1.51951,-1.013 -2.65914,-2.2792 -3.41887,-3.7987 -3.12343,-5.9514 -5.27605,-10.23555 -6.45788,-12.85248 -1.01301,-2.1526 -1.51951,-4.32633 -1.5195,-6.52119"
             id="path3823"
             inkscape:connector-curvature="0"
             sodipodi:nodetypes="ccccccccscccccccccccssscccc" />
          <path
             d="m 405.13223,1009.9476 c -10e-6,-0.8442 0.31655,-1.5828 0.94969,-2.216 0.63311,-0.6331 1.39286,-0.9496 2.27925,-0.9497 l 6.20462,0 0,-36.59458 -6.20462,0 c -0.88639,4e-5 -1.64614,-0.31652 -2.27925,-0.94969 -0.63314,-0.63308 -0.9497,-1.39283 -0.94969,-2.27925 -10e-6,-0.84412 0.31655,-1.58277 0.94969,-2.21594 0.63311,-0.63308 1.39286,-0.94964 2.27925,-0.94969 l 9.43356,0 c 0.84415,5e-5 1.58279,0.31661 2.21594,0.94969 0.6331,0.63317 0.94966,1.37182 0.94969,2.21594 l 0,39.82352 6.20463,0 c 0.88634,1e-4 1.64609,0.3166 2.27925,0.9497 0.63309,0.6332 0.94965,1.3718 0.94968,2.216 -3e-5,0.8864 -0.31659,1.6461 -0.94968,2.2792 -0.63316,0.6332 -1.39291,0.9497 -2.27925,0.9497 l -18.80382,0 c -0.88639,0 -1.64614,-0.3165 -2.27925,-0.9497 -0.63314,-0.6331 -0.9497,-1.3928 -0.94969,-2.2792"
             style=""
             id="path3825" />
          <path
             d="m 428.66508,1001.7169 0,-13.04233 c -10e-6,-1.47727 0.33766,-2.84904 1.013,-4.11531 0.67532,-1.26622 1.28734,-2.1526 1.83606,-2.65913 0.5487,-0.50647 1.47728,-1.30842 2.78575,-2.40587 1.73053,-1.51947 3.77763,-2.27922 6.14132,-2.27925 l 7.91406,0 c 0.54868,3e-5 1.07629,0.0422 1.58281,0.12662 0.50648,0.0422 1.01298,0.18997 1.5195,0.44319 0.50647,0.21107 0.90745,0.37991 1.20294,0.5065 0.29543,0.0844 0.69641,0.3377 1.20294,0.75975 0.50647,0.37991 0.82303,0.63316 0.94969,0.75975 0.1688,0.0844 0.52757,0.37991 1.07631,0.88637 0.59088,0.46433 0.90744,0.71758 0.94969,0.75975 2.237,1.94162 3.35552,4.34749 3.35556,7.21763 l 0,13.04233 c -4e-5,0.6754 -0.0422,1.3085 -0.12662,1.8994 -0.0845,0.5487 -0.2744,1.0974 -0.56982,1.6461 -0.29549,0.5488 -0.52764,0.992 -0.69643,1.3296 -0.12667,0.2955 -0.46433,0.7176 -1.013,1.2663 -0.54875,0.5487 -0.88641,0.8863 -1.013,1.013 -0.0845,0.1266 -0.48543,0.5065 -1.20294,1.1396 l -1.07631,0.8864 c -1.73058,1.5195 -3.77768,2.2792 -6.14132,2.2792 l -7.91406,0 c -0.67535,0 -1.32958,-0.063 -1.96269,-0.1899 -0.59093,-0.1689 -1.09743,-0.3166 -1.5195,-0.4432 -0.4221,-0.1688 -0.9286,-0.4432 -1.5195,-0.8231 -0.54872,-0.3798 -0.9497,-0.6542 -1.20294,-0.823 -0.21105,-0.1689 -0.61203,-0.5065 -1.20294,-1.013 -0.54872,-0.5065 -0.90749,-0.8231 -1.07631,-0.9497 -2.19484,-1.815 -3.29226,-4.2209 -3.29225,-7.2177 m 6.39456,0 c -10e-6,0.5066 0.12661,0.992 0.37988,1.4562 0.25323,0.4643 0.50648,0.8231 0.75975,1.0763 0.29544,0.2533 0.69642,0.591 1.20294,1.013 0.50648,0.3799 0.84415,0.6332 1.013,0.7598 0.6331,0.5065 1.30844,0.7598 2.026,0.7597 l 7.91406,0 c 0.59089,1e-4 1.11849,-0.1266 1.58281,-0.3798 0.46427,-0.2533 1.01298,-0.6965 1.64613,-1.3296 0.63309,-0.6331 0.99186,-0.9708 1.07631,-1.013 0.75972,-0.5909 1.1396,-1.3717 1.13963,-2.3426 l 0,-13.04233 c -3e-5,-1.09739 -0.63316,-2.21591 -1.89938,-3.35556 -1.26628,-1.1396 -2.44811,-1.70941 -3.5455,-1.70944 l -7.91406,0 c -0.59094,3e-5 -1.11854,0.12665 -1.58282,0.37987 -0.4643,0.25328 -1.01301,0.69647 -1.64612,1.32957 -0.63314,0.63315 -0.99191,0.97082 -1.07631,1.013 -0.71756,0.59094 -1.07633,1.37179 -1.07632,2.34256 l 0,13.04233"
             style=""
             id="path3827" />
          <path
             d="m 460.4802,980.44394 c 0,-0.88634 0.29545,-1.64609 0.88638,-2.27925 0.63312,-0.63309 1.39286,-0.94965 2.27925,-0.94968 0.84416,3e-5 1.5828,0.31659 2.21594,0.94968 0.63311,0.59095 0.94967,1.3085 0.94969,2.15263 l 0.82306,23.48898 c 0.0844,0.8441 0.40096,1.5617 0.94969,2.1526 0.5909,0.5487 1.30844,0.8231 2.15262,0.823 l 4.49519,0 10.38325,-6.5845 0,-19.75346 c -3e-5,-0.88634 0.29543,-1.64609 0.88638,-2.27925 0.63309,-0.63309 1.39284,-0.94965 2.27925,-0.94968 0.88634,3e-5 1.64609,0.31659 2.27925,0.94968 0.63309,0.63316 0.94965,1.39291 0.94969,2.27925 l 0,29.50366 c -4e-5,0.8864 -0.3166,1.6461 -0.94969,2.2792 -0.63316,0.6332 -1.39291,0.9497 -2.27925,0.9497 -0.88641,0 -1.64616,-0.3165 -2.27925,-0.9497 -0.59095,-0.6331 -0.88641,-1.3928 -0.88638,-2.2792 l 0,-2.216 -6.14131,3.9254 c -1.60394,1.013 -3.31338,1.5195 -5.12832,1.5195 l -3.60881,0 c -2.53251,0 -4.72735,-0.8864 -6.5845,-2.6591 -1.85718,-1.815 -2.82797,-3.9676 -2.91238,-6.4579 l -0.75975,-23.61556"
             style=""
             id="path3829" />
          <path
             d="m 492.88334,1001.7169 0,-13.04233 c -10e-6,-2.02597 0.44318,-3.65099 1.32956,-4.87506 0.88637,-1.26622 2.15262,-2.57468 3.79875,-3.92538 0.21103,-0.1688 0.37987,-0.29542 0.5065,-0.37987 1.73053,-1.51947 3.77764,-2.27922 6.14132,-2.27925 l 4.74844,0 c 0.67531,3e-5 1.32954,0.0844 1.96269,0.25325 0.63309,0.12666 1.13959,0.27438 1.5195,0.44318 0.42205,0.12666 0.94966,0.40102 1.58281,0.82307 0.63309,0.42211 1.03407,0.69647 1.20294,0.82306 0.1688,0.12666 0.56978,0.48543 1.20293,1.07631 0.67531,0.59095 1.05518,0.90751 1.13963,0.94969 l 0,-14.62519 c -3e-5,-0.84412 0.29543,-1.58277 0.88637,-2.21594 0.6331,-0.63308 1.39285,-0.94964 2.27926,-0.94969 0.88633,5e-5 1.64608,0.31661 2.27925,0.94969 0.63308,0.63317 0.94964,1.37182 0.94968,2.21594 l 0,42.98922 c -4e-5,0.8864 -0.3166,1.6461 -0.94968,2.2792 -0.63317,0.6332 -1.39292,0.9497 -2.27925,0.9497 -0.88641,0 -1.64616,-0.3165 -2.27926,-0.9497 -0.59094,-0.6331 -0.8864,-1.3928 -0.88637,-2.2792 l 0,-1.013 c -0.97082,0.9286 -1.77278,1.6461 -2.40588,2.1526 -0.59094,0.4643 -1.45621,0.9286 -2.59581,1.3929 -1.13965,0.4643 -2.34259,0.6964 -3.60881,0.6964 l -4.74844,0 c -0.46431,0 -0.9075,-0.021 -1.32956,-0.063 -0.3799,-0.042 -0.78088,-0.1266 -1.20294,-0.2532 -0.37989,-0.1267 -0.71756,-0.2322 -1.013,-0.3166 -0.29548,-0.1266 -0.63314,-0.2955 -1.013,-0.5065 -0.33768,-0.2111 -0.61204,-0.3799 -0.82306,-0.5065 -0.21106,-0.1266 -0.50652,-0.3377 -0.88638,-0.6331 -0.33768,-0.2955 -0.56982,-0.4854 -0.69644,-0.5698 -0.12663,-0.1267 -0.40099,-0.3588 -0.82306,-0.6965 -0.37989,-0.3799 -0.61203,-0.612 -0.69644,-0.6964 -2.19484,-1.815 -3.29226,-4.2209 -3.29225,-7.2177 m 6.39457,0 c -2e-5,0.5066 0.12661,0.992 0.37987,1.4562 0.25324,0.4643 0.50649,0.8231 0.75975,1.0763 0.29544,0.2533 0.69642,0.591 1.20294,1.013 0.50648,0.3799 0.84415,0.6332 1.013,0.7598 0.63311,0.5065 1.30844,0.7598 2.026,0.7597 l 4.74844,0 c 0.75972,1e-4 1.43506,-0.2532 2.026,-0.7597 l 5.44487,-4.6851 c 0.75972,-0.5487 1.1396,-1.3296 1.13963,-2.34259 l 0,-7.5975 c -3e-5,-0.88635 -0.37991,-1.66721 -1.13963,-2.34256 l -5.44487,-4.68513 c -0.50653,-0.50647 -1.18186,-0.75972 -2.026,-0.75975 l -4.74844,0 c -0.59094,3e-5 -1.13964,0.14776 -1.64613,0.44319 -0.46431,0.25328 -0.9708,0.65425 -1.5195,1.20293 -0.54872,0.54874 -0.90749,0.88641 -1.07631,1.013 -0.75976,0.67536 -1.13964,1.47732 -1.13962,2.40588 l 0,13.04233"
             style=""
             id="path3831" />
        </g>
      </g>
    </g>
  </g>
</svg>
